<svg xmlns="http://www.w3.org/2000/svg" xmlns:xlink="http://www.w3.org/1999/xlink" preserveAspectRatio="xMidYMid" width="28" height="26" viewBox="0 0 28 26">
  <defs>
    <style>
      .cls-1 {
        fill: #465664;
        fill-rule: evenodd;
      }
    </style>
  </defs>
  <path d="M19.922,0.000 C17.582,0.000 15.475,1.052 14.000,2.731 C12.525,1.052 10.418,0.000 8.078,0.000 C3.617,0.000 -0.000,3.822 -0.000,8.536 C-0.000,9.803 0.212,11.022 0.583,12.186 C0.583,12.186 0.919,13.236 1.217,13.814 C4.622,21.206 14.000,26.000 14.000,26.000 C14.000,26.000 23.378,21.206 26.783,13.814 C26.783,13.814 27.222,12.829 27.417,12.186 C27.772,11.016 28.000,9.803 28.000,8.536 C28.000,3.822 24.383,0.000 19.922,0.000 Z" class="cls-1"/>
</svg>
