<svg xmlns="http://www.w3.org/2000/svg" xmlns:xlink="http://www.w3.org/1999/xlink" preserveAspectRatio="xMidYMid" width="54" height="50" viewBox="0 0 54 50">
  <defs>
    <style>
      .cls-1 {
        fill: #18252e;
        fill-rule: evenodd;
      }
    </style>
  </defs>
  <path d="M38.421,0.000 C33.909,0.000 29.845,2.022 27.000,5.252 C24.155,2.022 20.091,0.000 15.579,0.000 C6.975,0.000 -0.000,7.349 -0.000,16.416 C-0.000,18.852 0.408,21.196 1.124,23.434 C1.124,23.434 1.772,25.454 2.347,26.566 C8.914,40.782 27.000,50.000 27.000,50.000 C27.000,50.000 45.086,40.781 51.653,26.566 C51.653,26.566 52.501,24.672 52.876,23.434 C53.559,21.185 54.000,18.852 54.000,16.416 C54.000,7.349 47.025,0.000 38.421,0.000 Z" class="cls-1"/>
</svg>
